<?xml version="1.0"?>
<svg xmlns="http://www.w3.org/2000/svg" viewBox="0 0 512 512" width="512px" height="512px" class=""><g><g id="Outline"><path d="M434.353,264.777l-82.01-15.362-.343-.064V227.985a70.484,70.484,0,0,0,15.59-22.722A103.4,103.4,0,0,0,376,164.3V160a32,32,0,1,0,0-64,80.11,80.11,0,0,0-80-80,80.09,80.09,0,0,0-80,80,32,32,0,0,0,0,64v4.3a103.437,103.437,0,0,0,8.408,40.968A70.483,70.483,0,0,0,240,227.986v21.376c-15.343,2.88-53.764,10.09-72,13.494V120a8,8,0,0,0-8-8H44.388a8,8,0,0,0-7.965,7.255l-.2,2.169a971.081,971.081,0,0,0-.67,173.151l.867,10.109A8,8,0,0,0,44.388,312H104a8.009,8.009,0,0,1,8,8v40H96a8,8,0,0,0-8,8v64a8,8,0,0,0,8,8h16v24a32.036,32.036,0,0,0,32,32h48a8.009,8.009,0,0,0,2.229-.316l101.741-29.6,101.8,29.6A7.992,7.992,0,0,0,400,496h48a32.036,32.036,0,0,0,32-32V319.84A56.016,56.016,0,0,0,434.353,264.777ZM376,112a16,16,0,1,1,0,32ZM216,144a16,16,0,0,1,0-32ZM354.574,266.119,360,267.135V344H272V291.942a72.512,72.512,0,0,0,82.574-25.823Zm-16.6-4.866a56.363,56.363,0,0,1-83.948,0A7.984,7.984,0,0,0,256,256V239.689A70.438,70.438,0,0,0,289.221,248h13.557A70.431,70.431,0,0,0,336,239.688V256A7.979,7.979,0,0,0,337.974,261.253ZM232,96a64.072,64.072,0,0,1,64-64,64.109,64.109,0,0,1,64,64v6.877l-12.522,43.712a12.1,12.1,0,0,1-16.575,3.065l-1.4-.936A28.007,28.007,0,0,0,313.916,144H291.1l12.49-37.47-15.18-5.06-14.27,42.812a28,28,0,0,0-11.64,4.436,12.094,12.094,0,0,1-17.266-4.164L232,102.762Zm7.115,102.96A87.514,87.514,0,0,1,232,164.3v-10.7a28.091,28.091,0,0,0,39.375,8.438A12.053,12.053,0,0,1,278.083,160h35.833a12.049,12.049,0,0,1,6.709,2.032l1.4.935a28.1,28.1,0,0,0,37.971-6.4V164.3a87.515,87.515,0,0,1-7.116,34.665A54.452,54.452,0,0,1,302.778,232H289.221A54.452,54.452,0,0,1,239.115,198.96ZM232,267.143l5.43-1.019A72.519,72.519,0,0,0,256,283.987V344H232ZM229.767,360H362.233l8.059,24.177-100.574,3.18-48.065-3.017ZM168,336V279.133c10.37-1.934,30.386-5.685,48-8.989V350.7l-9.241,27.725L200,375.048V352H184v15.052l-12.422-6.207A7.994,7.994,0,0,0,168,360Zm-94.465-138.2a13.708,13.708,0,0,1,0,20.391,29.7,29.7,0,0,0,0,43.609,13.708,13.708,0,0,1,0,20.391A30.726,30.726,0,0,0,65.14,296H51.73l-.239-2.793A955.139,955.139,0,0,1,51.688,128H68.717a29.767,29.767,0,0,0,4.818,5.8,13.708,13.708,0,0,1,0,20.391,29.7,29.7,0,0,0,0,43.609ZM104,296H82.638a15.067,15.067,0,0,1,1.907-2.195,29.7,29.7,0,0,0,0-43.609,13.708,13.708,0,0,1,0-20.391,29.7,29.7,0,0,0,0-43.609,13.708,13.708,0,0,1,0-20.391A30.266,30.266,0,0,0,94.08,144a29.8,29.8,0,0,0-4.754-16H152V328H128v-8.16h0A24.026,24.026,0,0,0,104,296Zm48,48v16H128V344ZM261.771,459.437,190.863,480H144a16.019,16.019,0,0,1-16-16V440h31.819l54.866,2.508,47.082,13.654,5.609,1.631ZM464,464a16.019,16.019,0,0,1-16,16H401.14L218.229,426.876a8.061,8.061,0,0,0-1.863-.308l-56.007-2.56C160.24,424,104,424,104,424V376h62.111l46.261,23.13a7.992,7.992,0,0,0,3.122.854L464,415.518Zm0-64.513-75.641-4.722,36.892-18.446L464,382.777Zm0-32.931-38.685-6.447a7.991,7.991,0,0,0-4.893.736L408,367.044V352H392v23.03l-6.765,3.376L376,350.7V270.13L431.407,280.5A40.009,40.009,0,0,1,464,319.84Z" data-original="#000000" class="active-path" data-old_color="#000000" fill="#FFFFFF"/><rect x="280" y="312" width="16" height="16" data-original="#000000" class="active-path" data-old_color="#000000" fill="#FFFFFF"/><circle cx="260" cy="116" r="12" data-original="#000000" class="active-path" data-old_color="#000000" fill="#FFFFFF"/><circle cx="332" cy="116" r="12" data-original="#000000" class="active-path" data-old_color="#000000" fill="#FFFFFF"/><path d="M286.891,192c13.9,0,27.091-3.228,37.14-9.09l-8.062-13.82c-7.529,4.391-18.127,6.91-29.078,6.91H272v16h14.891Z" data-original="#000000" class="active-path" data-old_color="#000000" fill="#FFFFFF"/><rect x="120" y="144.002" width="16" height="16" data-original="#000000" class="active-path" data-old_color="#000000" fill="#FFFFFF"/></g></g> </svg>
